<svg width="24" height="12" viewBox="0 0 24 12" fill="none" xmlns="http://www.w3.org/2000/svg">
<path d="M6.75 0C5.56331 0 4.40328 0.351894 3.41658 1.01118C2.42989 1.67047 1.66085 2.60754 1.20673 3.7039C0.7526 4.80026 0.63378 6.00666 0.865291 7.17054C1.0968 8.33443 1.66825 9.40353 2.50736 10.2426C3.34648 11.0818 4.41557 11.6532 5.57946 11.8847C6.74335 12.1162 7.94975 11.9974 9.0461 11.5433C10.1425 11.0892 11.0795 10.3201 11.7388 9.33342C12.3981 8.34673 12.75 7.18669 12.75 6C12.7483 4.40923 12.1156 2.88412 10.9907 1.75928C9.86588 0.634436 8.34077 0.00173705 6.75 0ZM6.75 10.5C5.85999 10.5 4.98996 10.2361 4.24994 9.74161C3.50992 9.24715 2.93314 8.54434 2.59254 7.72208C2.25195 6.89981 2.16284 5.99501 2.33647 5.12209C2.5101 4.24918 2.93869 3.44736 3.56802 2.81802C4.19736 2.18868 4.99918 1.7601 5.8721 1.58647C6.74501 1.41283 7.64981 1.50195 8.47208 1.84254C9.29434 2.18314 9.99715 2.75991 10.4916 3.49993C10.9861 4.23995 11.25 5.10998 11.25 6C11.2488 7.19309 10.7743 8.33697 9.93061 9.18061C9.08697 10.0243 7.9431 10.4988 6.75 10.5ZM17.25 0C16.7175 0 15.7125 0.25875 14.97 1.99219C14.5059 3.075 14.25 4.5 14.25 6C14.25 7.5 14.5059 8.925 14.97 10.0078C15.7125 11.7413 16.7175 12 17.25 12C17.7825 12 18.7875 11.7413 19.53 10.0078C19.9941 8.925 20.25 7.5 20.25 6C20.25 4.5 19.9941 3.075 19.53 1.99219C18.7875 0.25875 17.7825 0 17.25 0ZM17.25 10.5C16.7213 10.5 15.75 8.79187 15.75 6C15.75 3.20812 16.7213 1.5 17.25 1.5C17.7788 1.5 18.75 3.20812 18.75 6C18.75 8.79187 17.7788 10.5 17.25 10.5ZM23.25 0.75V11.25C23.25 11.4489 23.171 11.6397 23.0303 11.7803C22.8897 11.921 22.6989 12 22.5 12C22.3011 12 22.1103 11.921 21.9697 11.7803C21.829 11.6397 21.75 11.4489 21.75 11.25V0.75C21.75 0.551088 21.829 0.360322 21.9697 0.21967C22.1103 0.0790178 22.3011 0 22.5 0C22.6989 0 22.8897 0.0790178 23.0303 0.21967C23.171 0.360322 23.25 0.551088 23.25 0.75Z" fill="white"/>
</svg>
