<svg width="22" height="19" viewBox="0 0 22 19" fill="none" xmlns="http://www.w3.org/2000/svg">
<path d="M21.2081 0.45514C21.0919 0.354798 20.9505 0.288064 20.7992 0.262127C20.6479 0.236191 20.4923 0.252035 20.3494 0.307953L1.34998 7.74327C1.08071 7.84797 0.85275 8.03731 0.700407 8.28279C0.548064 8.52826 0.479587 8.81658 0.505286 9.10434C0.530984 9.3921 0.649467 9.66373 0.842897 9.87832C1.03633 10.0929 1.29423 10.2389 1.57779 10.2942L6.5006 11.2608V16.7498C6.49963 17.0488 6.58848 17.3412 6.75564 17.5891C6.9228 17.837 7.16056 18.029 7.4381 18.1401C7.71522 18.2533 8.01997 18.2805 8.31274 18.2181C8.6055 18.1557 8.87272 18.0067 9.07967 17.7905L11.4534 15.3286L15.2194 18.6248C15.4911 18.8658 15.8415 18.9992 16.2047 18.9998C16.3638 18.9997 16.522 18.9747 16.6734 18.9258C16.9209 18.8472 17.1434 18.7053 17.3189 18.514C17.4944 18.3227 17.6168 18.0887 17.6737 17.8355L21.479 1.28108C21.5131 1.13178 21.5058 0.976034 21.4581 0.830534C21.4104 0.685035 21.324 0.555267 21.2081 0.45514ZM15.4762 3.83014L7.07717 9.84514L2.42717 8.93295L15.4762 3.83014ZM8.0006 16.7498V12.2986L10.3247 14.3367L8.0006 16.7498ZM16.2065 17.4998L8.45529 10.703L19.6115 2.70702L16.2065 17.4998Z" fill="white"/>
</svg>
